<svg width="901" height="740" viewBox="0 0 901 740" fill="none" xmlns="http://www.w3.org/2000/svg">
<g id="Main">
<path id="Vector" d="M478.94 88.8L479.04 88.74C476.767 89.58 474.553 90.5267 472.4 91.58C460.312 97.4956 450.127 106.686 443.004 118.104C435.881 129.523 432.107 142.712 432.11 156.17C432.11 156.75 432.11 157.33 432.11 157.91C434.345 157.85 436.542 157.322 438.56 156.36C456.08 148.18 466.56 123.16 470.72 105.71C472.22 99.5 473.63 92.43 478.94 88.8Z" fill="#632652"/>
<path id="Vector_2" opacity="0.1" d="M363.13 340.88C363.13 340.88 347.28 383.16 369.47 421.21C391.66 459.26 349.92 475.12 349.92 475.12" fill="black"/>
<path id="Vector_3" opacity="0.1" d="M619.98 302.83C619.98 302.83 647.46 337.71 629.49 368.89C611.52 400.07 612.58 475.12 612.58 475.12" fill="black"/>
<path id="Vector_4" d="M597.66 96.57H590.36V137.96H597.66V96.57Z" fill="#6A5C99"/>
<path id="Vector_5" d="M580.62 123.35C587.293 123.35 593.692 126.001 598.411 130.719C603.129 135.438 605.78 141.837 605.78 148.51V150.13C605.78 156.803 603.129 163.202 598.411 167.921C593.692 172.639 587.293 175.29 580.62 175.29V175.29V123.35Z" fill="#FFD037"/>
<path id="Vector_6" d="M587.11 126.6C587.11 123.463 584.567 120.92 581.43 120.92C578.293 120.92 575.75 123.463 575.75 126.6V172.05C575.75 175.187 578.293 177.73 581.43 177.73C584.567 177.73 587.11 175.187 587.11 172.05V126.6Z" fill="#6A5C99"/>
<path id="Vector_7" d="M409.02 138.77H416.32V97.38H409.02V138.77Z" fill="#6A5C99"/>
<path id="Vector_8" d="M426.06 176.1C419.387 176.1 412.988 173.449 408.269 168.731C403.551 164.012 400.9 157.613 400.9 150.94V149.32C400.9 146.016 401.551 142.744 402.815 139.692C404.08 136.639 405.933 133.865 408.269 131.529C410.606 129.193 413.379 127.34 416.432 126.075C419.484 124.811 422.756 124.16 426.06 124.16V124.16V176.1Z" fill="#FFD037"/>
<path id="Vector_9" d="M419.57 172.85C419.57 175.987 422.113 178.53 425.25 178.53C428.387 178.53 430.93 175.987 430.93 172.85V127.4C430.93 124.263 428.387 121.72 425.25 121.72C422.113 121.72 419.57 124.263 419.57 127.4V172.85Z" fill="#6A5C99"/>
<g id="Group 2">
<path id="Vector_10" d="M503.71 10.57C523.752 10.57 542.974 18.5318 557.146 32.7039C571.318 46.8761 579.28 66.0976 579.28 86.14V118.38H428.14V86.14C428.14 66.0976 436.102 46.8761 450.274 32.7039C464.446 18.5318 483.668 10.57 503.71 10.57V10.57Z" fill="#D4C1EC"/>
<path id="Vector_11" d="M504.24 188.14C551.814 188.14 590.38 161.64 590.38 128.95C590.38 96.2603 551.814 69.76 504.24 69.76C456.666 69.76 418.1 96.2603 418.1 128.95C418.1 161.64 456.666 188.14 504.24 188.14Z" fill="#D4C1EC"/>
<path id="Vector_12" d="M449.02 186.29C449.02 186.29 467.02 280.36 449.02 305.73C431.02 331.1 504.02 341.14 504.02 341.14L579.58 313.66L590.15 246.01C590.15 246.01 544.15 220.11 553.68 167.79L449.02 186.29Z" fill="#F7C4A7"/>
<path id="Vector_13" opacity="0.1" d="M558 210.08C553.749 198.044 552.796 185.089 555.24 172.56L450.58 191.05C450.58 191.05 452.09 198.96 453.8 210.81C460.562 217.827 468.681 223.395 477.663 227.176C486.645 230.957 496.302 232.872 506.047 232.803C515.792 232.735 525.421 230.685 534.349 226.779C543.277 222.873 551.317 217.191 557.98 210.08H558Z" fill="black"/>
<path id="Vector_14" d="M575.85 156.17C575.768 175.029 568.278 193.1 554.994 206.487C541.711 219.873 523.698 227.504 504.841 227.732C485.983 227.96 467.791 220.768 454.188 207.707C440.584 194.646 432.659 176.761 432.12 157.91C432.12 157.33 432.12 156.75 432.12 156.17C432.117 142.712 435.891 129.523 443.014 118.104C450.137 106.686 460.322 97.4956 472.41 91.58C474.563 90.5267 476.777 89.58 479.05 88.74C490.874 84.3934 503.627 83.2077 516.05 85.3V85.3C531.971 88.011 546.513 96.0089 557.329 108.002C568.145 119.996 574.603 135.285 575.66 151.4C575.787 152.98 575.85 154.57 575.85 156.17Z" fill="#F7C4A7"/>
<g id="Group" opacity="0.1">
<path id="Vector_15" opacity="0.1" d="M478.94 90.43L479.04 90.37C476.767 91.21 474.553 92.1567 472.4 93.21C460.312 99.1257 450.127 108.316 443.004 119.734C435.881 131.153 432.107 144.342 432.11 157.8C432.11 158.38 432.11 158.96 432.11 159.54C434.345 159.48 436.542 158.952 438.56 157.99C456.08 149.81 466.56 124.79 470.72 107.34C472.22 101.09 473.63 94.05 478.94 90.43Z" fill="black"/>
<path id="Vector_16" opacity="0.1" d="M533.95 92.44C528.261 89.8266 522.253 87.9739 516.08 86.93C521.142 88.0949 525.663 90.9349 528.91 94.99C530.501 97.154 531.821 99.5048 532.84 101.99C523.275 97.8077 512.915 95.7534 502.478 95.9692C492.04 96.1851 481.774 98.6659 472.39 103.24C476.9 113.13 490.89 118.52 500.23 122.13C510.457 126.077 520.79 129.687 531.23 132.96L521.99 125.46L542.86 128.78C543.085 124.627 542.591 120.465 541.4 116.48C545.4 119.7 550.7 120.78 555.04 123.48C563.17 128.61 566.56 138.48 570.99 147.03C572.16 149.29 573.54 151.6 575.65 153.03C574.797 140.112 570.472 127.664 563.133 117C555.793 106.336 545.711 97.8505 533.95 92.44V92.44Z" fill="black"/>
</g>
<path id="Vector_17" d="M533.95 90.82C528.261 88.2066 522.253 86.3539 516.08 85.31C521.142 86.4749 525.663 89.3149 528.91 93.37C530.501 95.5339 531.821 97.8848 532.84 100.37C523.275 96.1877 512.915 94.1334 502.478 94.3492C492.04 94.5651 481.774 97.0459 472.39 101.62C476.9 111.51 490.89 116.9 500.23 120.51C510.457 124.457 520.79 128.067 531.23 131.34L521.99 123.84L542.86 127.16C543.085 123.007 542.591 118.845 541.4 114.86C545.4 118.08 550.7 119.16 555.04 121.86C563.17 126.99 566.56 136.86 570.99 145.41C572.16 147.67 573.54 149.98 575.65 151.41C574.797 138.492 570.472 126.044 563.133 115.38C555.793 104.716 545.711 96.2305 533.95 90.82V90.82Z" fill="#632652"/>
<path id="Vector_18" opacity="0.1" d="M423.91 144.32C423.91 144.32 497.91 52.32 583.52 144.32L576.12 123.71C576.12 123.71 535.95 65.05 507.42 77.71C478.89 90.37 450.87 99.38 450.87 99.38L423.91 144.32Z" fill="black"/>
<path id="Vector_19" d="M423.91 142.69C423.91 142.69 497.91 50.69 583.52 142.69L576.12 122.08C576.12 122.08 535.95 63.42 507.42 76.08C478.89 88.74 450.87 97.75 450.87 97.75L423.91 142.69Z" fill="#D4C1EC"/>
<path id="Vector_20" d="M369.9 331.89H613.22C618.342 331.89 623.413 332.899 628.145 334.859C632.876 336.819 637.176 339.691 640.797 343.313C644.419 346.934 647.291 351.234 649.251 355.965C651.211 360.697 652.22 365.768 652.22 370.89V512.11H330.9V370.89C330.9 360.547 335.009 350.627 342.323 343.313C349.637 335.999 359.557 331.89 369.9 331.89V331.89Z" fill="#535461"/>
<path id="Vector_21" d="M491.29 448.96C501.8 448.96 510.32 440.44 510.32 429.93C510.32 419.42 501.8 410.9 491.29 410.9C480.78 410.9 472.26 419.42 472.26 429.93C472.26 440.44 480.78 448.96 491.29 448.96Z" fill="white"/>
<path id="Vector_22" opacity="0.1" d="M428.14 101.2C428.14 101.2 500.86 28.52 579.29 99.87" stroke="black" stroke-miterlimit="10"/>
<path id="Vector_23" d="M589.5 52.33C579.61 31.77 558.07 6.90998 511.64 4.91998V4.85999H511.08L494.63 5.63998V5.71999C448.51 7.83999 427.07 32.61 417.21 53.1C410.643 66.9904 407.157 82.1364 406.99 97.5L412.67 97.36L418.35 97.23C418.595 83.5519 421.741 70.0816 427.58 57.71C440.1 31.99 463.14 18.32 496.05 17.05L510.6 16.24C543.53 17.5 566.58 31.19 579.09 56.9C584.939 69.2762 588.091 82.7537 588.34 96.44L594.02 96.57L599.7 96.71C599.537 81.3546 596.057 66.2159 589.5 52.33V52.33Z" fill="#FFD037"/>
<g id="Group 1">
<path id="Vector_24" d="M130.75 229C130.75 229 204.04 302.29 162.67 411C121.3 519.71 233.58 700.64 233.58 700.64C233.58 700.64 232.38 700.46 230.15 700.07C79.63 673.5 4.84002 501.35 88.58 373.5C119.66 325.91 145.2 270.14 130.75 229Z" fill="#FEF9FF"/>
<path id="Vector_25" d="M130.75 229C130.75 229 172.12 318.84 130.75 392.12C89.38 465.4 123.66 671.12 233.59 700.64" stroke="#535461" stroke-width="2" stroke-miterlimit="10"/>
<path id="Vector_26" d="M0.210022 525.42C0.210022 525.42 83.84 512.1 91.46 587.05C99.08 662 252.28 672.39 252.28 672.39C252.28 672.39 251.28 673.07 249.41 674.3C122.92 757.3 2.01002 727.19 20.24 616.94C27.01 575.95 26.45 534.78 0.210022 525.42Z" fill="#FEF9FF"/>
<path id="Vector_27" opacity="0.2" d="M0.210022 525.42C0.210022 525.42 83.84 512.1 91.46 587.05C99.08 662 252.28 672.39 252.28 672.39C252.28 672.39 251.28 673.07 249.41 674.3C122.92 757.3 2.01002 727.19 20.24 616.94C27.01 575.95 26.45 534.78 0.210022 525.42Z" fill="#FEF9FF"/>
<path id="Vector_28" d="M0.210022 525.42C0.210022 525.42 65.12 539.67 59.79 598.69C54.46 657.71 156.19 728.5 252.28 672.39" stroke="#535461" stroke-width="2" stroke-miterlimit="10"/>
<path id="Vector_29" d="M720.65 344.11C717.283 325.372 715.218 306.423 714.47 287.4C713.805 271.733 708.311 256.656 698.74 244.234C689.169 231.813 675.99 222.657 661.01 218.02C655.55 216.34 649.54 214.77 642.9 213.36C584.7 201 567.02 211.79 565.01 213.21C563.308 210.116 561.827 206.904 560.58 203.6C560.48 203.26 560.39 202.92 560.29 202.6C571.809 190.316 578.827 174.493 580.2 157.71C589.91 147.87 595.58 135.99 595.58 123.2C595.58 112.2 591.38 101.88 584.03 92.95V75.57C584.03 55.5276 576.068 36.3061 561.896 22.1339C547.724 7.96182 528.502 0 508.46 0H502.33C492.406 0 482.579 1.95468 473.411 5.75243C464.242 9.55017 455.911 15.1166 448.894 22.1339C441.877 29.1513 436.31 37.482 432.512 46.6506C428.715 55.8192 426.76 65.646 426.76 75.57V94.3C420.09 102.91 416.31 112.74 416.31 123.18C416.31 135.7 421.75 147.34 431.09 157.06C432.366 174.458 439.706 190.857 451.83 203.4C452.24 206.24 452.66 209.29 453.07 212.51L348.97 234.5C348.97 234.5 308.83 236.15 282.97 289.5C261.1 334.69 217.58 450.79 204.69 485.35C202.36 491.61 201.04 495.2 201.04 495.2C201.04 495.2 201.47 494.77 202.28 494.03L201.04 497.4C201.04 497.4 201.67 496.76 202.87 495.71C201.05 510.17 200.79 535 219.73 538.09C235.61 540.68 276.53 541.75 307.44 542.18H309.58C330.07 542.45 345.66 542.45 345.66 542.45V542.18H678.1V538.77C678.104 535.677 677.481 532.616 676.27 529.77L676.73 529.21C678.509 531.559 679.693 534.304 680.18 537.21C680.142 537.493 680.088 537.773 680.02 538.05L680.22 537.54C680.298 538.448 680.231 539.363 680.02 540.25C680.02 540.25 722.67 430.36 722.21 364.74C722.332 357.83 721.81 350.923 720.65 344.11V344.11ZM454.8 227.36C454.249 224.225 453.895 221.059 453.74 217.88C453.74 217.88 453.74 217.82 453.74 217.79C454.11 220.88 454.47 224.08 454.8 227.36ZM325.58 463.4V489.59L309.18 493.1L325.58 463.4Z" fill="url(#paint0_linear)"/>
<path id="Vector_30" d="M672.04 503.39C672.04 503.39 676.8 524 650.9 527.7C635.607 529.95 620.055 529.764 604.82 527.15L599.11 475.38H659.36L672.04 503.39Z" fill="#F7C4A7"/>
<path id="Vector_31" d="M214.7 477.01C214.7 477.01 203.26 523.5 229.16 527.7C255.06 531.9 350.16 531.93 350.16 531.93V476.93L307.1 486.13L266.68 447.37L214.7 477.01Z" fill="#F7C4A7"/>
<path id="Vector_32" opacity="0.1" d="M454.58 216.68L353.37 238.08C353.37 238.08 314.79 239.67 289.95 290.93C265.11 342.19 211.2 488.59 211.2 488.59C211.2 488.59 257.2 442.08 311.09 491.76L347.03 426.76L339.1 529.82H617.58V481.19C617.58 481.19 675.71 512.37 671.49 529.81C671.49 529.81 721.24 401.63 710.49 343.38C707.254 325.372 705.269 307.162 704.55 288.88V288.88C703.915 273.823 698.636 259.331 689.436 247.394C680.237 235.457 667.569 226.66 653.17 222.21C647.93 220.6 642.17 219.09 635.77 217.74C576.05 205.06 560.77 217.74 560.77 217.74C560.77 217.74 549.2 255.38 549.41 272.44C549.67 294.37 518.23 308.91 518.23 308.91C518.23 308.91 471.72 297.81 469.61 288.83C467.5 279.85 450.86 227.25 454.58 216.68Z" fill="black"/>
<path id="Vector_33" d="M454.58 214.57L353.37 235.97C353.37 235.97 314.79 237.56 289.95 288.82C265.11 340.08 211.19 486.5 211.19 486.5C211.19 486.5 257.19 439.99 311.08 489.67L347.02 424.67L339.09 527.7H617.58V479.08C617.58 479.08 675.71 510.26 671.49 527.7C671.49 527.7 721.24 399.52 710.49 341.27C707.254 323.262 705.269 305.052 704.55 286.77V286.77C703.915 271.713 698.636 257.221 689.436 245.284C680.237 233.347 667.569 224.55 653.17 220.1C647.93 218.49 642.17 216.98 635.77 215.63C576.05 202.95 560.77 215.63 560.77 215.63C560.77 215.63 549.2 253.27 549.41 270.33C549.67 292.26 518.23 306.8 518.23 306.8C518.23 306.8 471.72 295.7 469.61 286.72C467.5 277.74 450.86 225.14 454.58 214.57Z" fill="#FEF9FF"/>
<path id="Vector_34" d="M338.82 506.3H644.29C651.019 506.3 657.472 508.973 662.229 513.731C666.987 518.489 669.66 524.941 669.66 531.67V531.67H313.46C313.46 524.943 316.132 518.492 320.887 513.734C325.643 508.977 332.093 506.303 338.82 506.3V506.3Z" fill="#535461"/>
<path id="Vector_35" d="M848.99 532H74.28V740H848.99V532Z" fill="#D6D6E3"/>
<path id="Vector_36" opacity="0.1" d="M848.99 546H74.28V573H848.99V546Z" fill="black"/>
<path id="Vector_37" d="M900.94 529H22.31V556H900.94V529Z" fill="#D6D6E3"/>
</g>
</g>
</g>
<defs>
<linearGradient id="paint0_linear" x1="461.63" y1="542.5" x2="461.63" y2="0" gradientUnits="userSpaceOnUse">
<stop stop-color="#808080" stop-opacity="0.25"/>
<stop offset="0.54" stop-color="#808080" stop-opacity="0.12"/>
<stop offset="1" stop-color="#808080" stop-opacity="0.1"/>
</linearGradient>
</defs>
</svg>
